<svg width="35" height="34" viewBox="0 0 35 34" fill="none" xmlns="http://www.w3.org/2000/svg">
<g clip-path="url(#clip0_557_6948)">
<path d="M24.4837 6.72248C25.8215 7.80707 27.6539 8.37053 29.6426 8.31516C30.3131 8.29562 31.0064 8.20768 31.7127 8.04809C30.4042 5.88217 28.5978 3.9703 26.3259 2.51116C24.2494 1.17578 21.9905 0.351758 19.6991 0L21.6683 3.13325C22.4918 4.44257 23.3413 5.79749 24.4837 6.72248ZM6.14935 20.6202C6.98258 19.2131 7.77025 17.8843 7.85813 16.474C7.93299 15.3112 7.52288 14.0736 7.1258 12.8782L6.71569 11.6373C6.00288 9.9795 5.28357 8.32819 4.55449 6.68014C4.48614 6.54009 4.41454 6.39678 4.35269 6.25021C4.32015 6.17205 4.29085 6.09062 4.26156 6.01245C4.2225 5.92451 4.18019 5.83332 4.14113 5.74538C3.62687 6.34141 3.14841 6.97979 2.70901 7.6605C-1.4246 14.0996 -0.695523 22.2682 3.95886 27.8507C3.87749 26.4144 4.07604 24.965 4.59355 23.6199C5.00691 22.5451 5.58627 21.568 6.1461 20.6234L6.14935 20.6202ZM33.646 21.138C33.6005 21.138 33.5549 21.1413 33.5126 21.1445C33.301 21.1543 33.0992 21.1673 32.8909 21.1771C32.7998 21.1934 32.7086 21.2097 32.6175 21.226C31.0975 21.4996 29.6589 21.7569 28.5034 22.4702C26.9574 23.4245 25.9972 25.281 26.1144 27.0919C26.1469 27.5967 26.2543 28.1243 26.3715 28.6813C26.5277 29.4337 26.6807 30.2121 26.684 31.0556C28.5425 29.7952 30.1796 28.1504 31.4686 26.1408C32.4841 24.5579 33.2034 22.8675 33.646 21.138ZM32.8226 18.5422C33.2782 18.4575 33.7079 18.3631 34.1277 18.2653C34.2612 16.5684 34.144 14.8683 33.7795 13.2202C33.5744 13.2495 33.3694 13.2854 33.1676 13.3277C32.1586 13.5394 31.1724 13.9075 30.1276 14.2983C29.6035 14.4937 29.0632 14.6957 28.5164 14.878C27.1038 15.3471 24.9817 15.9138 22.8466 15.4155C22.0719 15.2363 21.3363 14.9171 20.6723 14.4905C19.4257 13.6892 18.4298 12.5037 17.8895 11.1097C17.411 9.87853 17.3166 8.62784 17.2255 7.42274C17.1799 6.80391 17.1343 6.21764 17.04 5.65418C16.8772 4.67056 16.5452 3.66414 16.0277 2.57956C15.5135 1.50148 14.9536 0.661174 14.3287 0.0293131C12.1708 0.384328 10.0877 1.14647 8.19989 2.2962C8.00785 2.68378 7.88091 3.04857 7.81907 3.40358C7.47081 5.33499 8.91269 7.38691 10.0291 8.76137C10.1788 8.94702 10.3318 9.13267 10.488 9.32158C11.8941 11.0315 13.489 12.9727 13.8535 15.4285C14.2311 17.9657 13.2351 20.213 12.2749 22.392C11.5296 24.0791 10.8233 25.6718 10.8037 27.2775C10.7777 29.1991 11.7932 31.2446 13.5899 32.8861C13.9674 33.2313 14.3678 33.5505 14.7844 33.8502C15.8031 33.987 16.8251 34.0326 17.8406 33.987C18.3321 33.7003 18.726 33.3746 19.0254 33.0001C19.9172 31.896 20.119 30.2902 20.2036 28.7204C20.2167 28.5021 20.2264 28.2839 20.2362 28.0657C20.3143 26.3981 20.3957 24.6719 21.1313 23.0271C21.984 21.125 23.6765 19.604 25.6587 18.9656C27.1462 18.4868 28.6824 18.4999 30.2545 18.565L30.3847 18.5715C31.1561 18.6008 31.9047 18.6301 32.6175 18.5878C32.6859 18.5748 32.7542 18.5617 32.8226 18.552V18.5422Z" fill="url(#paint0_linear_557_6948)"/>
</g>
<defs>
<linearGradient id="paint0_linear_557_6948" x1="13.5671" y1="0.274889" x2="21.3097" y2="36.7434" gradientUnits="userSpaceOnUse">
<stop stop-color="#C847E8"/>
<stop offset="0.98" stop-color="#933CFF"/>
</linearGradient>
<clipPath id="clip0_557_6948">
<rect width="34.1788" height="34" fill="white"/>
</clipPath>
</defs>
</svg>
