<svg width="20" height="20" viewBox="0 0 20 20" fill="none" xmlns="http://www.w3.org/2000/svg">
<path fill-rule="evenodd" clip-rule="evenodd" d="M7.46494 16.6715C7.46814 16.7858 7.47134 16.9001 7.4771 17.014L7.46036 17.0148C7.46036 17.0924 7.45974 17.1701 7.45912 17.2477C7.45788 17.4031 7.45664 17.5585 7.46036 17.7137C7.48308 18.6196 8.13107 19.4062 9.02813 19.5078C9.65019 19.5793 10.2781 19.584 10.9012 19.5218C11.87 19.4209 12.5116 18.6638 12.5474 17.6822C12.5492 17.6341 12.551 17.586 12.5528 17.5378C12.5655 17.2009 12.5783 16.863 12.5658 16.526C12.5339 15.6358 12.8969 14.9644 13.5509 14.3711C14.9529 13.1053 15.5435 11.4962 15.2645 9.63108C14.8198 6.63891 12.066 4.68373 9.07196 5.1809C6.08468 5.67647 4.09329 8.72166 4.82776 11.6656C5.10472 12.774 5.66942 13.7013 6.54616 14.4357C7.01004 14.8248 7.32726 15.3032 7.41413 15.9041C7.45055 16.1572 7.45775 16.4143 7.46494 16.6715ZM9.20626 18.5936C8.80735 18.5773 8.47777 18.2304 8.42955 17.8158L11.5408 17.8162C11.5308 18.1949 11.1817 18.5757 10.7764 18.5936C10.2536 18.616 9.72872 18.6152 9.20626 18.5936ZM8.39727 16.4331H11.6025V16.8645H8.39727V16.4331ZM11.7589 15.4144C11.7521 15.4374 11.7449 15.4612 11.7372 15.4862L10.4975 15.4874L9.5466 15.4783H8.31119C8.29416 15.431 8.27756 15.383 8.26083 15.3345C8.22431 15.2288 8.18714 15.1212 8.14342 15.0162C7.92423 14.4867 7.56158 14.0737 7.13995 13.6893C5.75869 12.4311 5.29681 10.8674 5.85792 9.09683C6.41903 7.32625 7.68951 6.27929 9.53942 6.062C12.2892 5.73827 14.597 7.97013 14.4013 10.7267C14.3121 11.9921 13.7597 13.0327 12.7579 13.8329C12.2864 14.21 11.9843 14.7156 11.7978 15.2893C11.7842 15.3298 11.772 15.3706 11.7589 15.4144Z" fill="#C847E8"/>
<path d="M10.4692 1.84112C10.4692 2.13176 10.4744 2.42241 10.4692 2.71305C10.462 3.03201 10.2791 3.22657 9.99855 3.22537C9.71799 3.22418 9.53627 3.03001 9.53348 2.70707C9.5279 2.12578 9.5279 1.54463 9.53348 0.963601C9.53627 0.644649 9.71959 0.440919 9.99297 0.434939C10.2664 0.428958 10.464 0.639067 10.4712 0.968385C10.4732 1.26063 10.4692 1.55127 10.4692 1.84112Z" fill="#C847E8"/>
<path d="M1.43042 5.60407C1.46668 5.23688 1.80503 4.98531 2.10113 5.14279C2.68455 5.45337 3.25483 5.78907 3.81993 6.13194C4.02875 6.25872 4.05904 6.52305 3.9363 6.73277C3.81355 6.94248 3.56328 7.03019 3.35087 6.91218C2.78578 6.59801 2.22506 6.27427 1.67431 5.93618C1.56671 5.86801 1.51012 5.7169 1.43042 5.60407Z" fill="#C847E8"/>
<path d="M18.5722 5.60717C18.4798 5.72678 18.4128 5.88626 18.2909 5.95962C17.7656 6.28455 17.228 6.58875 16.6896 6.89175C16.4505 7.02571 16.1939 6.95196 16.0644 6.73427C15.9257 6.50144 15.9847 6.24269 16.2317 6.09637C16.7622 5.78021 17.2954 5.46843 17.8358 5.16941C18.1677 4.98402 18.5324 5.20689 18.5722 5.60717Z" fill="#C847E8"/>
<path d="M1.42627 14.8456C1.51753 14.726 1.58368 14.5665 1.70523 14.4899C2.23606 14.161 2.78123 13.852 3.32441 13.5462C3.37491 13.5166 3.43074 13.4973 3.48871 13.4893C3.54669 13.4813 3.60567 13.4848 3.6623 13.4996C3.71892 13.5144 3.77207 13.5402 3.81871 13.5756C3.86536 13.611 3.90458 13.6552 3.93414 13.7057C4.07123 13.9266 4.0258 14.1929 3.79147 14.3344C3.2443 14.665 2.69236 14.9891 2.13085 15.2941C1.8224 15.4619 1.4713 15.2259 1.42627 14.8456Z" fill="#C847E8"/>
<path d="M18.5718 14.8507C18.5268 15.2191 18.1845 15.4619 17.888 15.3024C17.3125 14.9927 16.7502 14.6594 16.1923 14.3201C15.9779 14.1901 15.9388 13.9361 16.0596 13.722C16.1803 13.5079 16.435 13.4126 16.6605 13.5378C17.2184 13.8476 17.7764 14.1654 18.3188 14.5011C18.4303 14.5724 18.4881 14.7323 18.5718 14.8507Z" fill="#C847E8"/>
<path d="M6.73427 3.71207C6.72431 3.98677 6.61471 4.13229 6.41864 4.20087C6.22257 4.26944 6.02331 4.22638 5.91531 4.04777C5.56993 3.47632 5.23624 2.89755 4.91424 2.31147C4.80544 2.11213 4.91663 1.86255 5.1135 1.74892C5.20568 1.69561 5.31373 1.67658 5.41857 1.69518C5.52341 1.71378 5.61832 1.76882 5.68657 1.85059C5.73177 1.90735 5.77178 1.96806 5.80612 2.03199C6.0795 2.50325 6.35408 2.9737 6.62268 3.44734C6.66639 3.53269 6.70369 3.62118 6.73427 3.71207Z" fill="#C847E8"/>
<path d="M13.7518 4.27304C13.3875 4.22321 13.154 3.87635 13.3134 3.57813C13.6191 3.0088 13.9474 2.45103 14.2806 1.89725C14.4141 1.67558 14.6791 1.63013 14.8931 1.75651C15.1071 1.8829 15.19 2.13806 15.0653 2.36292C14.7544 2.92109 14.4376 3.47726 14.1021 4.02067C14.0323 4.13191 13.8709 4.18852 13.7518 4.27304Z" fill="#C847E8"/>
<path d="M1.60971 10.6885C1.31202 10.6885 1.01393 10.6925 0.716234 10.6885C0.418541 10.6845 0.218486 10.4924 0.217291 10.2256C0.216095 9.95891 0.411766 9.76595 0.713045 9.76355C1.3156 9.7585 1.91843 9.7585 2.52152 9.76355C2.82001 9.76634 3.01568 9.9629 3.0101 10.2328C3.00452 10.492 2.80765 10.6817 2.5251 10.6877C2.21984 10.6921 1.91497 10.6885 1.60971 10.6885Z" fill="#C847E8"/>
<path d="M18.3725 10.6889C18.082 10.6889 17.7915 10.6917 17.501 10.6889C17.1913 10.6849 16.9857 10.4896 16.9901 10.2161C16.9944 9.94256 17.1893 9.76515 17.4954 9.76315C18.0908 9.75864 18.6863 9.75864 19.2819 9.76315C19.5872 9.76555 19.7809 9.95014 19.7825 10.2209C19.7841 10.4916 19.578 10.6853 19.2644 10.6889C18.9683 10.6921 18.6706 10.6889 18.3725 10.6889Z" fill="#C847E8"/>
<path d="M9.6965 11.5293H8.95167C8.95167 11.6402 8.95844 11.7406 8.95167 11.8399C8.94587 11.9577 8.89402 12.0684 8.8073 12.1482C8.72058 12.228 8.60596 12.2705 8.48819 12.2665C8.23633 12.2665 8.03787 12.0907 8.03468 11.8335C8.02671 11.2223 8.01515 10.6103 8.03986 9.99955C8.06576 9.35367 8.67749 8.81624 9.33185 8.82182C9.98622 8.8274 10.582 9.35208 10.6095 9.99078C10.6358 10.6008 10.6238 11.2132 10.6167 11.8248C10.6135 12.0871 10.4238 12.2609 10.1715 12.2665C9.91209 12.2721 9.71602 12.0931 9.69729 11.8279C9.68932 11.7351 9.6965 11.641 9.6965 11.5293ZM8.95406 10.5605H9.70327C9.66342 10.2898 9.81565 9.98281 9.51477 9.81496C9.41315 9.75795 9.21309 9.76672 9.11625 9.8317C8.84925 10.0107 8.98395 10.3018 8.95406 10.5605Z" fill="#C847E8"/>
<path d="M11.0458 10.5355C11.0458 10.1368 11.0434 9.73809 11.0458 9.33701C11.0486 9.02643 11.2427 8.81872 11.5168 8.82509C11.7839 8.83068 11.9684 9.03042 11.9696 9.33223C11.973 10.1389 11.973 10.9453 11.9696 11.7515C11.9696 12.0664 11.7783 12.2662 11.4997 12.2614C11.2315 12.2566 11.0482 12.0573 11.0454 11.7563C11.043 11.3492 11.0458 10.9425 11.0458 10.5355Z" fill="#C847E8"/>
</svg>
