<svg width="40" height="40" viewBox="0 0 40 40" fill="none" xmlns="http://www.w3.org/2000/svg">
<path fill-rule="evenodd" clip-rule="evenodd" d="M21.0016 36.3317C24.1016 33.655 33.3333 24.9884 33.3333 16.6667C33.3333 13.1305 31.9285 9.7391 29.4281 7.23862C26.9276 4.73813 23.5362 3.33337 20 3.33337C16.4637 3.33337 13.0724 4.73813 10.5719 7.23862C8.07138 9.7391 6.66663 13.1305 6.66663 16.6667C6.66663 24.9884 15.8983 33.655 18.9983 36.3317C19.2871 36.5489 19.6386 36.6663 20 36.6663C20.3613 36.6663 20.7128 36.5489 21.0016 36.3317ZM25 16.6667C25 19.4281 22.7614 21.6667 20 21.6667C17.2385 21.6667 15 19.4281 15 16.6667C15 13.9053 17.2385 11.6667 20 11.6667C22.7614 11.6667 25 13.9053 25 16.6667Z" fill="#28A745"/>
<path d="M20 21.6666C22.7614 21.6666 25 19.428 25 16.6666C25 13.9052 22.7614 11.6666 20 11.6666C17.2386 11.6666 15 13.9052 15 16.6666C15 19.428 17.2386 21.6666 20 21.6666Z" fill="white"/>
</svg>
