<svg width="17" height="22" viewBox="0 0 17 22" fill="none" xmlns="http://www.w3.org/2000/svg">
  <path d="M14.1413 13.7573C12.7166 15.8564 8.43223 21.1053 8.43223 21.1053C8.43223 21.1053 4.1479 15.8564 2.72314 13.7573C-0.0829522 9.62305 0.297152 5.54915 3.19162 2.66396C4.63872 1.22124 6.53548 0.5 8.43223 0.5C10.329 0.5 12.2257 1.22124 13.6728 2.66396C16.5673 5.54915 16.9472 9.62305 14.1413 13.7573Z" fill="#28A745"/>
  <path d="M8.432 12.5457C10.8952 12.5457 12.8921 10.5553 12.8921 8.09996C12.8921 5.64462 10.8952 3.65417 8.432 3.65417C5.96877 3.65417 3.97192 5.64462 3.97192 8.09996C3.97192 10.5553 5.96877 12.5457 8.432 12.5457Z" fill="white"/>
</svg>