<svg width="40" height="40" viewBox="0 0 40 40" fill="none" xmlns="http://www.w3.org/2000/svg">
<path fill-rule="evenodd" clip-rule="evenodd" d="M21.0017 36.3317C24.1017 33.655 33.3334 24.9884 33.3334 16.6667C33.3334 13.1305 31.9287 9.7391 29.4282 7.23862C26.9277 4.73813 23.5363 3.33337 20.0001 3.33337C16.4639 3.33337 13.0725 4.73813 10.572 7.23862C8.07151 9.7391 6.66675 13.1305 6.66675 16.6667C6.66675 24.9884 15.8984 33.655 18.9984 36.3317C19.2872 36.5489 19.6388 36.6663 20.0001 36.6663C20.3614 36.6663 20.713 36.5489 21.0017 36.3317ZM25.0001 16.6667C25.0001 19.4281 22.7615 21.6667 20.0001 21.6667C17.2387 21.6667 15.0001 19.4281 15.0001 16.6667C15.0001 13.9053 17.2387 11.6667 20.0001 11.6667C22.7615 11.6667 25.0001 13.9053 25.0001 16.6667Z" fill="#DC3545"/>
<path d="M20 21.6666C22.7614 21.6666 25 19.428 25 16.6666C25 13.9052 22.7614 11.6666 20 11.6666C17.2386 11.6666 15 13.9052 15 16.6666C15 19.428 17.2386 21.6666 20 21.6666Z" fill="white"/>
</svg>
