<svg width="40" height="40" viewBox="0 0 40 40" fill="none" xmlns="http://www.w3.org/2000/svg">
<path fill-rule="evenodd" clip-rule="evenodd" d="M21.0015 36.3317C24.1015 33.655 33.3332 24.9884 33.3332 16.6667C33.3332 13.1305 31.9284 9.7391 29.4279 7.23862C26.9274 4.73813 23.5361 3.33337 19.9998 3.33337C16.4636 3.33337 13.0722 4.73813 10.5717 7.23862C8.07126 9.7391 6.6665 13.1305 6.6665 16.6667C6.6665 24.9884 15.8982 33.655 18.9982 36.3317C19.287 36.5489 19.6385 36.6663 19.9998 36.6663C20.3612 36.6663 20.7127 36.5489 21.0015 36.3317Z" fill="#FFC107"/>
<path d="M20 21.6666C22.7614 21.6666 25 19.428 25 16.6666C25 13.9052 22.7614 11.6666 20 11.6666C17.2386 11.6666 15 13.9052 15 16.6666C15 19.428 17.2386 21.6666 20 21.6666Z" fill="black" fill-opacity="0.4"/>
</svg>
