<svg width="21" height="24" viewBox="0 0 21 24" fill="none" xmlns="http://www.w3.org/2000/svg">
<g opacity="0.3">
<path opacity="0.3" d="M14.2164 4.9248C13.6697 4.92427 13.1456 4.70685 12.759 4.32028C12.3724 3.93371 12.155 3.40956 12.1545 2.86287V0H2.94089C2.22722 0 1.54278 0.283511 1.03814 0.788151C0.533505 1.29279 0.25 1.97721 0.25 2.69088V18.9122C0.25106 19.6252 0.53503 20.3086 1.03955 20.8124C1.54408 21.3161 2.22791 21.5991 2.94089 21.5991H14.0014C14.7144 21.5991 15.3982 21.3161 15.9028 20.8124C16.4073 20.3086 16.6913 19.6252 16.6923 18.9122V4.9248H14.2164Z" fill="#C25B33"/>
</g>
<path d="M16.6921 4.9248H14.2162C13.6695 4.92427 13.1454 4.70685 12.7588 4.32028C12.3722 3.93371 12.1548 3.40956 12.1543 2.86287V0L16.6921 4.9248Z" fill="#C25B33"/>
<path d="M13.3099 15.0834H2.98631C2.88686 15.0834 2.79148 15.0439 2.72116 14.9736C2.65083 14.9033 2.61133 14.8079 2.61133 14.7085C2.61159 14.6092 2.65122 14.514 2.72151 14.4439C2.7918 14.3738 2.88703 14.3345 2.98631 14.3345H13.3099C13.4091 14.3345 13.5042 14.3739 13.5743 14.444C13.6445 14.5141 13.6839 14.6093 13.6839 14.7085C13.684 14.7577 13.6744 14.8064 13.6557 14.8519C13.637 14.8974 13.6094 14.9387 13.5747 14.9735C13.5399 15.0084 13.4987 15.036 13.4532 15.0549C13.4078 15.0737 13.3591 15.0834 13.3099 15.0834Z" fill="#C25B33"/>
<path d="M13.3099 10.8598H2.98631C2.88703 10.8598 2.7918 10.8204 2.72151 10.7503C2.65122 10.6802 2.61159 10.5851 2.61133 10.4858C2.61133 10.3864 2.65083 10.291 2.72116 10.2206C2.79148 10.1503 2.88686 10.1108 2.98631 10.1108H13.3099C13.3591 10.1108 13.4078 10.1205 13.4532 10.1394C13.4987 10.1583 13.5399 10.1859 13.5747 10.2207C13.6094 10.2556 13.637 10.2969 13.6557 10.3424C13.6744 10.3879 13.684 10.4366 13.6839 10.4858C13.6839 10.585 13.6445 10.6801 13.5743 10.7503C13.5042 10.8204 13.4091 10.8598 13.3099 10.8598Z" fill="#C25B33"/>
<path d="M13.3099 12.9716H2.98631C2.88686 12.9716 2.79148 12.9321 2.72116 12.8618C2.65083 12.7915 2.61133 12.6961 2.61133 12.5966C2.61159 12.4974 2.65122 12.4022 2.72151 12.3321C2.7918 12.262 2.88703 12.2227 2.98631 12.2227H13.3099C13.4091 12.2227 13.5042 12.2621 13.5743 12.3322C13.6445 12.4023 13.6839 12.4975 13.6839 12.5966C13.684 12.6458 13.6744 12.6946 13.6557 12.7401C13.637 12.7856 13.6094 12.8269 13.5747 12.8617C13.5399 12.8966 13.4987 12.9242 13.4532 12.9431C13.4078 12.9619 13.3591 12.9716 13.3099 12.9716Z" fill="#C25B33"/>
<path d="M9.23805 8.7475H2.98631C2.88703 8.7475 2.7918 8.70814 2.72151 8.63803C2.65122 8.56793 2.61159 8.4728 2.61133 8.37352C2.61133 8.27407 2.65083 8.17869 2.72116 8.10837C2.79148 8.03805 2.88686 7.99854 2.98631 7.99854H9.23805C9.33733 7.9988 9.43246 8.03842 9.50256 8.10871C9.57267 8.17901 9.61204 8.27424 9.61204 8.37352C9.61177 8.47263 9.57229 8.56759 9.50221 8.63767C9.43213 8.70775 9.33716 8.74724 9.23805 8.7475Z" fill="#C25B33"/>
<path d="M9.23805 6.63569H2.98631C2.88703 6.63569 2.7918 6.5963 2.72151 6.52619C2.65122 6.45609 2.61159 6.36098 2.61133 6.2617C2.61133 6.16225 2.65083 6.06685 2.72116 5.99653C2.79148 5.92621 2.88686 5.88672 2.98631 5.88672H9.23805C9.33733 5.88698 9.43246 5.9266 9.50256 5.99689C9.57267 6.06719 9.61204 6.16242 9.61204 6.2617C9.61177 6.36081 9.57229 6.45577 9.50221 6.52585C9.43213 6.59593 9.33716 6.63542 9.23805 6.63569Z" fill="#C25B33"/>
<path d="M18.6426 17.0605H6.13914C5.2522 17.0605 4.5332 17.7795 4.5332 18.6665V22.3943C4.5332 23.2813 5.2522 24.0003 6.13914 24.0003H18.6426C19.5295 24.0003 20.2486 23.2813 20.2486 22.3943V18.6665C20.2486 17.7795 19.5295 17.0605 18.6426 17.0605Z" fill="#C25B33"/>
<path d="M8.63478 21.3369V22.0639H7.88281V21.3369H8.63478Z" fill="white"/>
<path d="M9.74064 21.009V22.064H9.01367V19.0571H10.1916C10.5486 19.0571 10.8216 19.1461 11.0086 19.3231C11.1032 19.4161 11.1771 19.528 11.2253 19.6516C11.2736 19.7752 11.2951 19.9076 11.2886 20.0401C11.2922 20.2149 11.2491 20.3875 11.1636 20.5401C11.0763 20.6892 10.9469 20.8092 10.7916 20.8851C10.6043 20.9736 10.3987 21.0164 10.1916 21.0101L9.74064 21.009ZM10.5486 20.0401C10.5486 19.7734 10.4026 19.6401 10.1106 19.6401H9.74064V20.4231H10.1106C10.4026 20.4257 10.5486 20.2981 10.5486 20.0401Z" fill="white"/>
<path d="M14.1633 21.3391C14.0381 21.5665 13.849 21.7521 13.6194 21.8731C13.361 22.0054 13.0736 22.071 12.7834 22.0641H11.6484V19.0572H12.7834C13.0738 19.0499 13.3616 19.1141 13.6214 19.2442C13.8504 19.3625 14.039 19.5463 14.1633 19.7722C14.2934 20.0119 14.3589 20.2814 14.3533 20.5541C14.3587 20.8278 14.2933 21.0982 14.1633 21.3391ZM13.3814 21.1881C13.4627 21.1047 13.5256 21.0052 13.5663 20.896C13.6069 20.7868 13.6243 20.6704 13.6174 20.5541C13.6243 20.438 13.607 20.3217 13.5663 20.2127C13.5257 20.1037 13.4627 20.0044 13.3814 19.9212C13.1995 19.7616 12.9619 19.6803 12.7204 19.6952H12.3754V21.4131H12.7204C12.9617 21.4278 13.1991 21.3469 13.3814 21.1881Z" fill="white"/>
<path d="M16.7246 19.0571V19.6361H15.4916V20.2951H16.4436V20.848H15.4916V22.064H14.7637V19.0571H16.7246Z" fill="white"/>
<path d="M13.1267 5.88672H11.3588C11.0506 5.88672 10.8008 6.13653 10.8008 6.4447V8.21262C10.8008 8.52078 11.0506 8.7706 11.3588 8.7706H13.1267C13.4348 8.7706 13.6847 8.52078 13.6847 8.21262V6.4447C13.6847 6.13653 13.4348 5.88672 13.1267 5.88672Z" fill="#C25B33"/>
</svg>
