<svg width="21" height="24" viewBox="0 0 21 24" fill="none" xmlns="http://www.w3.org/2000/svg">
<g opacity="0.3">
<path opacity="0.3" d="M14.2164 4.92479C13.6697 4.92426 13.1456 4.70684 12.759 4.32027C12.3724 3.9337 12.155 3.40956 12.1545 2.86286V0H2.9409C2.22723 0 1.54279 0.283511 1.03815 0.78815C0.533511 1.29279 0.25 1.97721 0.25 2.69088V18.9122C0.25 19.6258 0.533511 20.3103 1.03815 20.8149C1.54279 21.3196 2.22723 21.6031 2.9409 21.6031H14.0004C14.7141 21.6031 15.3985 21.3196 15.9032 20.8149C16.4078 20.3103 16.6913 19.6258 16.6913 18.9122V4.92479H14.2164Z" fill="#3D8A58" fill-opacity="0.847059"/>
</g>
<path d="M16.6911 4.92479H14.2162C13.6695 4.92426 13.1454 4.70684 12.7588 4.32027C12.3722 3.9337 12.1548 3.40956 12.1543 2.86286V0L16.6911 4.92479Z" fill="#3D8A58" fill-opacity="0.847059"/>
<path d="M18.6426 17.0601H6.13914C5.25221 17.0601 4.5332 17.7791 4.5332 18.666V22.3938C4.5332 23.2808 5.25221 23.9998 6.13914 23.9998H18.6426C19.5295 23.9998 20.2485 23.2808 20.2485 22.3938V18.666C20.2485 17.7791 19.5295 17.0601 18.6426 17.0601Z" fill="#3D8A58" fill-opacity="0.847059"/>
<path d="M8.9932 21.3369V22.0639H8.24023V21.3369H8.9932Z" fill="white"/>
<path d="M11.1952 22.064L10.5622 21.128L10.0173 22.064H9.1843L10.1452 20.5161L9.1543 19.0571H10.0173L10.6342 19.9631L11.1662 19.0571H11.9952L11.0472 20.5711L12.0592 22.064H11.1952Z" fill="white"/>
<path d="M14.3798 21.6558C14.2935 21.7939 14.1697 21.9046 14.0228 21.9748C13.844 22.0585 13.6481 22.0993 13.4508 22.0938C13.1531 22.1063 12.8597 22.0194 12.6169 21.8468C12.5094 21.7662 12.4215 21.6624 12.3597 21.5431C12.2979 21.4238 12.2638 21.2921 12.2599 21.1579H13.0338C13.0394 21.2591 13.0825 21.3547 13.1548 21.4258C13.2268 21.493 13.3224 21.5289 13.4208 21.5258C13.4609 21.5282 13.5011 21.5226 13.539 21.5094C13.5769 21.4962 13.6119 21.4756 13.6418 21.4488C13.6685 21.423 13.6895 21.3918 13.7034 21.3574C13.7174 21.3229 13.7239 21.286 13.7228 21.2488C13.7238 21.2136 13.7177 21.1785 13.7048 21.1457C13.6919 21.1129 13.6725 21.083 13.6478 21.0579C13.5949 21.0043 13.5321 20.9615 13.4628 20.9319C13.3902 20.8999 13.2882 20.8609 13.1568 20.8149C12.9975 20.7623 12.8418 20.6992 12.6909 20.6259C12.5668 20.562 12.4604 20.4686 12.3809 20.3539C12.2886 20.2151 12.2431 20.0504 12.2509 19.8839C12.2472 19.7189 12.2948 19.5569 12.3869 19.4199C12.4815 19.2861 12.6122 19.1821 12.7638 19.1199C12.9386 19.0489 13.1262 19.0148 13.3148 19.0199C13.6012 19.0041 13.884 19.0887 14.1148 19.2589C14.213 19.3388 14.2934 19.4384 14.351 19.5511C14.4085 19.6639 14.4418 19.7875 14.4488 19.9139H13.6618C13.653 19.8254 13.615 19.7424 13.5538 19.6779C13.5225 19.648 13.4855 19.6247 13.4449 19.6096C13.4043 19.5944 13.3611 19.5877 13.3178 19.5899C13.2428 19.5865 13.1692 19.6107 13.1108 19.6579C13.0839 19.6835 13.0629 19.7146 13.0495 19.7492C13.036 19.7838 13.0303 19.8209 13.0328 19.8579C13.0313 19.9251 13.0565 19.9902 13.1028 20.0389C13.1526 20.0909 13.2125 20.1321 13.2788 20.1599C13.3498 20.1909 13.4518 20.2309 13.5848 20.2789C13.7471 20.3317 13.9052 20.3966 14.0578 20.4729C14.1825 20.5401 14.2899 20.6353 14.3718 20.7509C14.4651 20.8919 14.5113 21.0589 14.5038 21.2279C14.5024 21.3792 14.4595 21.5272 14.3798 21.6558Z" fill="white"/>
<path d="M15.6322 21.507H16.6062V22.064H14.9062V19.0571H15.6342L15.6322 21.507Z" fill="white"/>
<path d="M12.1379 15.0835H4.80625C4.17128 15.0835 3.6543 14.4515 3.6543 13.6735V8.35475C3.6543 7.57778 4.17128 6.9458 4.80625 6.9458H12.1409C12.7749 6.9458 13.2919 7.57778 13.2919 8.35475V13.6735C13.2889 14.4515 12.7719 15.0835 12.1379 15.0835ZM4.80625 7.66576C4.49526 7.66576 4.24329 7.97477 4.24329 8.35475V13.6735C4.24329 14.0535 4.49526 14.3625 4.80625 14.3625H12.1409C12.4509 14.3625 12.7029 14.0535 12.7029 13.6735V8.35475C12.7029 7.97477 12.4509 7.66576 12.1409 7.66576H4.80625Z" fill="#3D8A58" fill-opacity="0.847059"/>
<path d="M12.9959 11.8804H3.94727V12.6013H12.9959V11.8804Z" fill="#3D8A58" fill-opacity="0.847059"/>
<path d="M12.9959 9.40869H3.94727V10.1297H12.9959V9.40869Z" fill="#3D8A58" fill-opacity="0.847059"/>
<path d="M10.678 7.30566H9.95703V14.7223H10.678V7.30566Z" fill="#3D8A58" fill-opacity="0.847059"/>
<path d="M6.98464 7.30566H6.26367V14.7223H6.98464V7.30566Z" fill="#3D8A58" fill-opacity="0.847059"/>
</svg>
