<svg width="20" height="14" viewBox="0 0 20 14" fill="none" xmlns="http://www.w3.org/2000/svg">
    <path fill-rule="evenodd" clip-rule="evenodd" d="M1.75779 0H18.2422C18.5128 0 18.7661 0.0652892 18.9953 0.172903L11.2428 7.74318C10.5573 8.41593 9.44266 8.41593 8.75718 7.74318L1.0047 0.172903C1.23388 0.0652892 1.4872 0 1.75779 0ZM13.7582 6.90079L19.8238 0.986084C19.9335 1.21101 20 1.45963 20 1.7252V12.0764C20 12.3419 19.9335 12.5906 19.8238 12.8155L13.7582 6.90079ZM0.176172 0.986084C0.0665235 1.21101 0 1.45963 0 1.7252V12.0764C0 12.3419 0.0665235 12.5906 0.176172 12.8155L6.24176 6.90079L0.176172 0.986084ZM12.0714 8.55635L12.9297 7.71396L18.9953 13.6287C18.7661 13.7363 18.5128 13.8016 18.2422 13.8016H1.75779C1.4872 13.8016 1.23388 13.7363 1.0047 13.6287L7.0703 7.71396L7.92859 8.55635C9.07074 9.67731 10.9292 9.67731 12.0714 8.55635Z" fill="#00C8A0"/>
</svg>
