<svg width="20" height="20" viewBox="0 0 20 20" fill="none" xmlns="http://www.w3.org/2000/svg">
    <path d="M18.1152 1.84986C15.602 -0.616644 11.5131 -0.616606 8.99994 1.84989C7.28333 3.53465 6.68708 6.01744 7.43037 8.26998L0.17168 15.394C0.061797 15.5019 0 15.6479 0 15.8006V19.0539C0 19.3718 0.262071 19.629 0.585939 19.629H3.90071C4.05634 19.629 4.20513 19.5683 4.31497 19.4605L5.14353 18.6467C5.26997 18.5226 5.33177 18.3485 5.31118 18.1739L5.20817 17.3L6.44185 17.186C6.72224 17.1602 6.94369 16.9428 6.97001 16.6676L7.08619 15.4569L7.97654 15.5585C8.14189 15.5804 8.30842 15.5259 8.43373 15.417C8.55845 15.3075 8.62998 15.1513 8.62998 14.9874V13.9166H9.70115C9.85678 13.9166 10.0056 13.856 10.1154 13.7481L11.618 12.2929C13.9126 13.023 16.3985 12.4819 18.1152 10.796C20.6283 8.32952 20.6283 4.31636 18.1152 1.84986ZM16.4575 5.91635C15.772 6.58914 14.6574 6.58914 13.9719 5.91635C13.2864 5.24356 13.2864 4.14959 13.9719 3.4768C14.6574 2.80401 15.772 2.80401 16.4575 3.4768C17.143 4.14959 17.143 5.24356 16.4575 5.91635Z" fill="#00C8A0"/>
</svg>
