<svg width="16" height="16" viewBox="0 0 16 16" fill="none" xmlns="http://www.w3.org/2000/svg">
<path d="M14 14H3.06667C2.6933 14 2.50661 14 2.36401 13.9273C2.23856 13.8634 2.13658 13.7614 2.07266 13.636C2 13.4934 2 13.3067 2 12.9333V2" stroke="#C847E8" stroke-linecap="round" stroke-linejoin="round"/>
<path d="M14.5186 6.97126L9.39508 6.97126C9.2084 6.97126 9.11506 6.97126 9.04375 7.00759C8.98103 7.03954 8.93004 7.09054 8.89808 7.15326C8.86175 7.22456 8.86175 7.3179 8.86175 7.50459L8.86175 9.26635C8.86175 9.45303 8.86175 9.54638 8.82542 9.61768C8.79346 9.6804 8.74247 9.73139 8.67975 9.76335C8.60844 9.79968 8.5151 9.79968 8.32842 9.79968H4.14771M14.5186 6.97126L12.633 8.85687M14.5186 6.97126L12.633 5.08564" stroke="#C847E8" stroke-linecap="round" stroke-linejoin="round"/>
</svg>
